<?xml version="1.0" encoding="UTF-8"?>
<!DOCTYPE svg PUBLIC "-//W3C//DTD SVG 1.1//EN" "http://www.w3.org/Graphics/SVG/1.1/DTD/svg11.dtd">
<!-- Creator: CorelDRAW 2020 (64 Bit) -->
<svg xmlns="http://www.w3.org/2000/svg" xml:space="preserve" width="33.8666mm" height="33.8666mm" version="1.1" style="shape-rendering:geometricPrecision; text-rendering:geometricPrecision; image-rendering:optimizeQuality; fill-rule:evenodd; clip-rule:evenodd"
viewBox="0 0 3386.66 3386.66"
 xmlns:xlink="http://www.w3.org/1999/xlink"
 xmlns:xodm="http://www.corel.com/coreldraw/odm/2003">
 <defs>
  <style type="text/css">
   <![CDATA[
    .str0 {stroke:#2C2B2B;stroke-width:20;stroke-miterlimit:22.9256}
    .fil1 {fill:#ED3237}
    .fil0 {fill:#EAECED}
    .fil3 {fill:#2C2B2B}
    .fil2 {fill:#CCCCCC}
   ]]>
  </style>
 </defs>
 <g id="Camada_x0020_1">
  <metadata id="CorelCorpID_0Corel-Layer"/>
  <path class="fil0" d="M8165.02 1408.95c-47.38,-24.99 -13.91,-53.33 -101.59,-54.21 -57.06,-0.57 -94.64,2.6 -86.79,68.03 51.89,30.49 97.99,4.59 158.24,21.07 -12.49,61.59 -121.6,48.98 -121.59,150.3 0.01,235.79 -22.09,226.09 66.93,287.45 -0.54,49.56 -3.23,66.98 18.51,98.97l171.97 0.64c27.17,-43.14 14.56,-41.44 20.9,-80.08l3.19 -12.76c7.79,-32.25 580.39,-13.57 654.1,-12.21 9.15,64.59 -9.43,51.82 23.09,100.83l173.44 2.83c23.35,-53.8 19.51,-26.13 19.56,-100.64 81.94,-42.4 66.78,-70.1 66.94,-198.84 0.17,-121.81 9.74,-132.19 -72.68,-186.64 -26.24,-17.34 -42.01,-18.51 -48.19,-49.94 54.82,-13.43 101.76,5.61 154.32,-18.46 27.2,-101.02 -130.5,-65.88 -143.63,-57.01 -27.07,18.28 -5.41,27.16 -51.41,41.24 -19.56,-49.61 -53.62,-103.51 -79.26,-155.14 -50.11,-100.93 -97.07,-98.56 -191.44,-98.58l-352.56 0.01c-207.76,0.03 -167.19,80.44 -262.38,230.25l-19.67 22.89z"/>
  <path class="fil1" d="M5910.25 1288.59l2.02 519.89c40.81,28.97 26.39,5.17 80.82,19.87 2.24,0.6 4.93,1.86 6.7,2.42 60.47,18.75 -59.88,152.3 123.22,142.16 48.5,-72.47 15.08,-143.15 67.99,-152.7 7.99,-1.45 29.67,-1.44 38.61,-1.38 26.23,0.15 52.36,0.39 78.61,0.41 83.64,0.07 422.21,-13.32 444.96,11.49 31.87,46.53 -20.41,151.41 86.93,143.92 38.78,-2.72 47.68,-21.14 55.38,-58.22 8.21,-39.53 9.38,-58.69 21.27,-97.19 42.69,0 527.2,-5.94 564.09,3.78 21.56,5.67 15.28,12.41 19.92,29.42l21.1 94.24c2.06,3.04 103.69,62.02 120.76,-30.82 3.02,-16.47 3.49,-33.1 5.64,-48.48 14.65,-104.58 78.96,-4.11 86.63,-84.26 1.27,-13.22 -0.85,-47.87 -0.93,-63.62 -0.2,-39.17 0.21,-78.36 0.15,-117.54 -0.23,-143.89 9.28,-322.6 -3.79,-462.24 -3.41,-6.96 -114.12,-109.76 -201.78,-8.48 -43.03,49.7 -27.17,212.06 -27.09,290.53l0.93 157.59c-0.36,32.14 6.75,26.93 -9.33,40.47 -21.68,21.42 -717.18,9.32 -800.95,9.34l-525.85 -0.77 -4.5 -442.31c-6.08,-41.95 -56.87,-89.77 -90.9,-96.63 -51.5,-10.37 -101.93,15.2 -128.91,44.45 -33.03,35.82 -31.7,89.3 -31.7,154.66z"/>
  <path class="fil1" d="M6084.23 1030.05c75.27,45.27 96.77,18.21 123.65,127.9l14.61 45.51c4.85,20.68 3.55,40.17 3.03,61.84 -1.48,62.84 -13.19,74.65 51.36,74.64l462.24 -0.09c80.19,0 61.22,-6.61 61.24,-113.93 0.01,-38.52 12.24,-241.61 -12.09,-276.48 -59.71,-85.62 -41.85,-55.19 -116.96,-118.48 -57.85,-48.73 -155.61,-65.82 -238.02,-64.78 -181.99,2.29 -341.02,174.56 -349.06,263.87z"/>
  <path class="fil1" d="M6864.07 1006.55c0,82.88 -7.98,279.16 6.13,323.37 111.42,15.26 354.9,6.45 472.19,6.44 66.48,-0.02 89.05,17.73 89.2,-46.84 0.19,-75.31 7.41,-150.46 55.67,-209.3 24.95,-30.42 44.63,-32.91 85.23,-47.1 -6.09,-59.88 -27.17,-70.37 -51.57,-102.56 -3.44,-4.53 -7.59,-11.33 -12.75,-18.49l-56.26 -61.79c-50.62,-41.26 -142.85,-78.42 -218.89,-80.75 -163,-4.99 -368.95,96.66 -368.95,237.02z"/>
  <path class="fil2" d="M1538.21 2488.59l-1487.41 5.34c20.29,102.85 252.18,357.75 331.89,445.67 86.66,95.63 277.91,300 315.54,416.24l2045.12 5.43c137.46,-277.49 517.59,-665.8 542.81,-867.76l-1624.04 -0.21c-46.77,-211.15 14.32,-1971.48 -16.24,-2431.26l-104.06 -2.77 -3.61 2429.32z"/>
  <path class="fil2" d="M1799.75 2347.16l1549.84 5.76c40.39,-366.19 -309.73,-1098.37 -560.47,-1408.18 -159.18,-196.65 -270.67,-324.23 -453.15,-496.38 -82.25,-77.59 -461.54,-379.05 -551.23,-375.82l241.05 752.12c20,104.93 25.77,234.75 26.45,354.13 4.28,756.5 -245.96,1010.37 -252.49,1168.37z"/>
  <path class="fil1" d="M6234.05 1566.71l1124.01 0.68c54.44,-0.01 75.32,19.17 75.75,-42.91 0.26,-36.53 1.31,-85.69 -2.7,-121.08l-1091.56 -4c-47.56,0 -109.68,-15.42 -114.37,30.07 -4.44,43.12 -3.35,103.39 8.87,137.24z"/>
  <path class="fil3 str0" d="M8214.95 1434.34l815.2 0.63c-2.05,-21.83 -89.42,-187.52 -108.2,-206.35 -51.15,-51.27 -206,-28.4 -294.69,-28.4 -79.2,0 -251.89,-18.56 -300.04,23.04 -20.36,17.57 -111.78,185.78 -112.27,211.08z"/>
  <path class="fil2" d="M308.06 2342.09l1110.62 0.12 2.46 -1427.43c-108.22,22.39 -173.92,179.54 -294.49,323.9 -106.34,127.28 -165.53,203.97 -276.57,354.34l-402.42 534.48c-99.9,131.23 -99.83,81.58 -139.6,214.59z"/>
  <path class="fil3 str0" d="M8446.37 1776.1c32.39,14.63 298.87,9.43 353.26,3.74 14.46,-19.34 67.91,-117.89 32.94,-138.37 -18.02,-10.56 -172.18,-4.48 -205.31,-4.47 -177.65,0.02 -256.24,-28.16 -219.67,67.17 11.04,28.8 19.46,56.89 38.78,71.93z"/>
  <path class="fil3 str0" d="M8973.7 1567.45l149.97 -6.89c23.73,9.55 23.72,31.54 4.59,63.51 -58.91,1.28 -117.82,2.55 -176.74,3.82 -8.81,-6.97 -18.89,-58.55 22.18,-60.44z"/>
  <path class="fil3 str0" d="M8286.46 1562.99l-150.12 -2.1c-23.41,10.3 -22.7,32.27 -2.56,63.62 58.93,-0.6 117.84,-1.21 176.77,-1.81 8.58,-7.25 17.02,-59.13 -24.09,-59.71z"/>
  <circle class="fil3 str0" cx="9072.05" cy="1777.34" r="25.8"/>
  <circle class="fil3 str0" cx="8195.06" cy="1780.47" r="25.8"/>
 </g>
</svg>
