<?xml version="1.0" encoding="UTF-8"?>
<!DOCTYPE svg PUBLIC "-//W3C//DTD SVG 1.1//EN" "http://www.w3.org/Graphics/SVG/1.1/DTD/svg11.dtd">
<!-- Creator: CorelDRAW 2020 (64 Bit) -->
<svg xmlns="http://www.w3.org/2000/svg" xml:space="preserve" width="33.8666mm" height="33.8666mm" version="1.1" style="shape-rendering:geometricPrecision; text-rendering:geometricPrecision; image-rendering:optimizeQuality; fill-rule:evenodd; clip-rule:evenodd"
viewBox="0 0 3386.66 3386.66"
 xmlns:xlink="http://www.w3.org/1999/xlink"
 xmlns:xodm="http://www.corel.com/coreldraw/odm/2003">
 <defs>
  <style type="text/css">
   <![CDATA[
    .str0 {stroke:#2C2B2B;stroke-width:20;stroke-miterlimit:22.9256}
    .str1 {stroke:#CCCCCC;stroke-width:20;stroke-miterlimit:22.9256}
    .fil2 {fill:#2C2B2B}
    .fil0 {fill:#CCCCCC}
    .fil1 {fill:#CCCCCC}
   ]]>
  </style>
 </defs>
 <g id="Camada_x0020_1">
  <metadata id="CorelCorpID_0Corel-Layer"/>
  <path class="fil0" d="M-36798.85 4723.78l-1487.41 5.34c20.29,102.85 252.18,357.75 331.89,445.67 86.66,95.63 277.91,300 315.54,416.24l2045.12 5.43c137.46,-277.49 517.59,-665.8 542.81,-867.76l-1624.04 -0.21c-46.77,-211.15 14.32,-1971.48 -16.24,-2431.26l-104.06 -2.77 -3.61 2429.32z"/>
  <path class="fil0" d="M-36537.31 4582.35l1549.84 5.76c40.39,-366.19 -309.73,-1098.37 -560.47,-1408.18 -159.18,-196.65 -270.67,-324.23 -453.15,-496.38 -82.25,-77.59 -461.54,-379.05 -551.23,-375.82l241.05 752.12c20,104.93 25.77,234.75 26.45,354.13 4.28,756.5 -245.96,1010.37 -252.49,1168.37z"/>
  <g id="_2626071220880">
   <path class="fil1" d="M-44642.33 2295.82l3.67 1419.99c73.75,79.11 47.69,14.1 146.06,54.26 4.05,1.64 8.9,5.08 12.11,6.6 109.28,51.23 -108.22,415.99 222.7,388.29 87.65,-197.92 27.24,-391 122.87,-417.08 14.45,-3.94 53.63,-3.92 69.79,-3.76 47.4,0.42 94.62,1.08 142.07,1.13 151.17,0.18 763.07,-36.39 804.19,31.37 57.6,127.1 -36.89,413.56 157.11,393.09 70.09,-7.43 86.18,-57.73 100.09,-159 14.84,-107.97 16.94,-160.32 38.43,-265.46 77.17,0 952.82,-16.22 1019.5,10.31 38.97,15.5 27.61,33.9 36.01,80.38l38.13 257.39c3.73,8.29 187.39,169.39 218.25,-84.19 5.46,-44.99 6.3,-90.4 10.2,-132.41 26.47,-285.65 142.7,-11.22 156.57,-230.15 2.29,-36.09 -1.54,-130.74 -1.69,-173.76 -0.35,-106.99 0.38,-214.02 0.27,-321.04 -0.4,-393.01 16.77,-881.14 -6.84,-1262.53 -6.17,-19 -206.26,-299.8 -364.69,-23.17 -77.76,135.74 -49.1,579.21 -48.97,793.54l1.69 430.42c-0.65,87.8 12.2,73.57 -16.85,110.55 -39.19,58.51 -1296.18,25.45 -1447.59,25.5l-950.37 -2.1 -8.15 -1208.09c-10.99,-114.59 -102.77,-245.21 -164.28,-263.94 -93.08,-28.33 -184.21,41.53 -232.98,121.42 -59.71,97.84 -57.3,243.9 -57.3,422.44z"/>
   <path class="fil1" d="M-44327.88 1589.65c136.03,123.64 174.9,49.74 223.46,349.32l26.41 124.32c8.77,56.49 6.42,109.72 5.49,168.91 -2.68,171.61 -23.85,203.89 92.82,203.86l835.41 -0.25c144.93,0 110.65,-18.04 110.68,-311.18 0.02,-105.21 22.13,-659.91 -21.84,-755.17 -107.92,-233.84 -75.64,-150.74 -211.39,-323.59 -104.56,-133.12 -281.23,-179.78 -430.18,-176.95 -328.91,6.25 -616.33,476.78 -630.86,720.73z"/>
   <path class="fil1" d="M-42918.46 1525.45c0,226.39 -14.42,762.48 11.08,883.24 201.36,41.68 641.42,17.62 853.4,17.59 120.14,-0.05 160.93,48.43 161.22,-127.94 0.33,-205.7 13.38,-410.96 100.61,-571.68 45.09,-83.07 80.66,-89.87 154.03,-128.62 -11.01,-163.58 -49.1,-192.21 -93.21,-280.14 -6.2,-12.36 -13.71,-30.94 -23.04,-50.5l-101.67 -168.78c-91.49,-112.7 -258.18,-214.18 -395.6,-220.55 -294.6,-13.62 -666.82,264.02 -666.82,647.38z"/>
   <path class="fil1" d="M-44057.1 3055.44l2031.43 1.87c98.41,-0.03 136.14,52.34 136.92,-117.2 0.47,-99.78 2.36,-234.06 -4.88,-330.71l-1972.8 -10.95c-85.96,0 -198.23,-42.11 -206.71,82.14 -8.03,117.78 -6.06,282.39 16.04,374.85z"/>
  </g>
  <path class="fil0" d="M-38029 4577.28l1110.62 0.12 2.46 -1427.43c-108.22,22.39 -173.92,179.54 -294.49,323.9 -106.34,127.28 -165.53,203.97 -276.57,354.34l-402.42 534.48c-99.9,131.23 -99.83,81.58 -139.6,214.59z"/>
  <g id="_2626071217472">
   <path class="fil1" d="M-47733.91 3256.42c-121.02,-99.99 -35.54,-213.37 -259.46,-216.89 -145.72,-2.29 -241.69,10.4 -221.65,272.16 132.53,121.97 250.24,18.36 404.12,84.29 -31.88,246.39 -310.56,195.93 -310.54,601.28 0.05,943.25 -56.41,904.42 170.96,1149.89 -1.39,198.27 -8.27,267.97 47.27,395.94l439.18 2.56c69.39,-172.58 37.2,-165.77 53.39,-320.36l8.13 -51.04c19.9,-129.01 1482.28,-54.27 1670.54,-48.83 23.35,258.38 -24.11,207.3 58.96,403.35l442.94 11.32c59.63,-215.22 49.82,-104.53 49.96,-402.6 209.27,-169.62 170.54,-280.45 170.96,-795.44 0.43,-487.31 24.86,-528.84 -185.61,-746.66 -67.02,-69.37 -107.29,-74.03 -123.08,-199.78 140,-53.72 259.89,22.43 394.12,-73.85 69.46,-404.13 -333.29,-263.53 -366.82,-228.07 -69.13,73.15 -13.83,108.65 -131.3,164.99 -49.96,-198.45 -136.93,-414.08 -202.42,-620.64 -127.97,-403.76 -247.9,-394.28 -488.93,-394.36l-900.4 0.04c-530.6,0.15 -426.99,321.8 -670.1,921.12l-50.22 91.58z"/>
   <path class="fil2 str0" d="M-47606.41 3357.96l2081.95 2.52c-5.22,-87.33 -228.36,-750.13 -276.33,-825.47 -130.62,-205.11 -526.11,-113.64 -752.6,-113.6 -202.27,0 -643.3,-74.26 -766.29,92.13 -51.99,70.3 -285.48,743.21 -286.73,844.42z"/>
   <path class="fil2 str0" d="M-47015.39 4725.14c82.74,58.53 763.31,37.73 902.2,15 36.94,-77.37 173.44,-471.61 84.13,-553.57 -46.01,-42.24 -439.73,-17.92 -524.33,-17.88 -453.72,0.07 -654.41,-112.65 -561.04,268.71 28.22,115.2 49.72,227.59 99.04,287.74z"/>
   <path class="fil2 str0" d="M-45668.61 3890.46l383.01 -27.54c60.59,38.2 60.57,126.16 11.72,254.06 -150.47,5.1 -300.91,10.18 -451.38,15.28 -22.5,-27.91 -48.26,-234.24 56.65,-241.8z"/>
   <path class="fil2 str0" d="M-47423.78 3872.64l-383.38 -8.42c-59.78,41.21 -57.97,129.12 -6.55,254.51 150.5,-2.4 300.97,-4.84 451.47,-7.24 21.92,-29.02 43.47,-236.54 -61.54,-238.85z"/>
   <ellipse class="fil2 str0" cx="-45417.45" cy="4730.1" rx="65.89" ry="103.21"/>
   <ellipse class="fil2 str0" cx="-47657.2" cy="4742.65" rx="65.89" ry="103.21"/>
  </g>
  <polygon class="fil1 str1" points="1693.33,42.33 2081.31,1306.14 3344.33,1303.58 2321.1,2082.1 2713.7,3344.33 1693.33,2561.69 672.96,3344.33 1065.56,2082.1 42.33,1303.58 1305.35,1306.14 "/>
 </g>
</svg>
