<?xml version="1.0" encoding="UTF-8"?>
<!DOCTYPE svg PUBLIC "-//W3C//DTD SVG 1.1//EN" "http://www.w3.org/Graphics/SVG/1.1/DTD/svg11.dtd">
<!-- Creator: CorelDRAW 2020 (64 Bit) -->
<svg xmlns="http://www.w3.org/2000/svg" xml:space="preserve" width="33.8666mm" height="33.8666mm" version="1.1" style="shape-rendering:geometricPrecision; text-rendering:geometricPrecision; image-rendering:optimizeQuality; fill-rule:evenodd; clip-rule:evenodd"
viewBox="0 0 3386.66 3386.66"
 xmlns:xlink="http://www.w3.org/1999/xlink"
 xmlns:xodm="http://www.corel.com/coreldraw/odm/2003">
 <defs>
  <style type="text/css">
   <![CDATA[
    .str0 {stroke:#2C2B2B;stroke-width:20;stroke-miterlimit:22.9256}
    .fil0 {fill:#EAECED}
    .fil3 {fill:#2C2B2B}
    .fil1 {fill:#CCCCCC}
    .fil2 {fill:#CCCCCC}
   ]]>
  </style>
 </defs>
 <g id="Camada_x0020_1">
  <metadata id="CorelCorpID_0Corel-Layer"/>
  <path class="fil0" d="M8165.02 1408.95c-47.38,-24.99 -13.91,-53.33 -101.59,-54.21 -57.06,-0.57 -94.64,2.6 -86.79,68.03 51.89,30.49 97.99,4.59 158.24,21.07 -12.49,61.59 -121.6,48.98 -121.59,150.3 0.01,235.79 -22.09,226.09 66.93,287.45 -0.54,49.56 -3.23,66.98 18.51,98.97l171.97 0.64c27.17,-43.14 14.56,-41.44 20.9,-80.08l3.19 -12.76c7.79,-32.25 580.39,-13.57 654.1,-12.21 9.15,64.59 -9.43,51.82 23.09,100.83l173.44 2.83c23.35,-53.8 19.51,-26.13 19.56,-100.64 81.94,-42.4 66.78,-70.1 66.94,-198.84 0.17,-121.81 9.74,-132.19 -72.68,-186.64 -26.24,-17.34 -42.01,-18.51 -48.19,-49.94 54.82,-13.43 101.76,5.61 154.32,-18.46 27.2,-101.02 -130.5,-65.88 -143.63,-57.01 -27.07,18.28 -5.41,27.16 -51.41,41.24 -19.56,-49.61 -53.62,-103.51 -79.26,-155.14 -50.11,-100.93 -97.07,-98.56 -191.44,-98.58l-352.56 0.01c-207.76,0.03 -167.19,80.44 -262.38,230.25l-19.67 22.89z"/>
  <path class="fil1" d="M11461.15 2522.45l-1487.41 5.34c20.29,102.85 252.18,357.75 331.89,445.67 86.66,95.63 277.91,300 315.54,416.24l2045.12 5.43c137.46,-277.49 517.59,-665.8 542.81,-867.76l-1624.04 -0.21c-46.77,-211.15 14.32,-1971.48 -16.24,-2431.26l-104.06 -2.77 -3.61 2429.32z"/>
  <path class="fil1" d="M11722.69 2381.02l1549.84 5.76c40.39,-366.19 -309.73,-1098.37 -560.47,-1408.18 -159.18,-196.65 -270.67,-324.23 -453.15,-496.38 -82.25,-77.59 -461.54,-379.05 -551.23,-375.82l241.05 752.12c20,104.93 25.77,234.75 26.45,354.13 4.28,756.5 -245.96,1010.37 -252.49,1168.37z"/>
  <g id="_2625513745904">
   <path class="fil2" d="M42.35 1469.37l3.67 1419.99c73.75,79.11 47.69,14.1 146.06,54.26 4.05,1.64 8.9,5.08 12.11,6.6 109.28,51.23 -108.22,415.99 222.7,388.29 87.65,-197.92 27.24,-391 122.87,-417.08 14.45,-3.94 53.63,-3.92 69.79,-3.76 47.4,0.42 94.62,1.08 142.07,1.13 151.17,0.18 763.07,-36.39 804.19,31.37 57.6,127.1 -36.89,413.56 157.11,393.09 70.09,-7.43 86.18,-57.73 100.09,-159 14.84,-107.97 16.94,-160.32 38.43,-265.46 77.17,0 952.82,-16.22 1019.5,10.31 38.97,15.5 27.61,33.9 36.01,80.38l38.13 257.39c3.73,8.29 187.39,169.39 218.25,-84.19 5.46,-44.99 6.3,-90.4 10.2,-132.41 26.47,-285.65 142.7,-11.22 156.57,-230.15 2.29,-36.09 -1.54,-130.74 -1.69,-173.76 -0.35,-106.99 0.38,-214.02 0.27,-321.04 -0.4,-393.01 16.77,-881.14 -6.84,-1262.53 -6.17,-19 -206.26,-299.8 -364.69,-23.17 -77.76,135.74 -49.1,579.21 -48.97,793.54l1.69 430.42c-0.65,87.8 12.2,73.57 -16.85,110.55 -39.19,58.51 -1296.18,25.45 -1447.59,25.5l-950.37 -2.1 -8.15 -1208.09c-10.99,-114.59 -102.77,-245.21 -164.28,-263.94 -93.08,-28.33 -184.21,41.53 -232.98,121.42 -59.71,97.84 -57.3,243.9 -57.3,422.44z"/>
   <path class="fil2" d="M356.8 763.2c136.03,123.64 174.9,49.74 223.46,349.32l26.41 124.32c8.77,56.49 6.42,109.72 5.49,168.91 -2.68,171.61 -23.85,203.89 92.82,203.86l835.41 -0.25c144.93,0 110.65,-18.04 110.68,-311.18 0.02,-105.21 22.13,-659.91 -21.84,-755.17 -107.92,-233.84 -75.64,-150.74 -211.39,-323.59 -104.56,-133.12 -281.23,-179.78 -430.18,-176.95 -328.91,6.25 -616.33,476.78 -630.86,720.73z"/>
   <path class="fil2" d="M1766.22 699c0,226.39 -14.42,762.48 11.08,883.24 201.36,41.68 641.42,17.62 853.4,17.59 120.14,-0.05 160.93,48.43 161.22,-127.94 0.33,-205.7 13.38,-410.96 100.61,-571.68 45.09,-83.07 80.66,-89.87 154.03,-128.62 -11.01,-163.58 -49.1,-192.21 -93.21,-280.14 -6.2,-12.36 -13.71,-30.94 -23.04,-50.5l-101.67 -168.78c-91.49,-112.7 -258.18,-214.18 -395.6,-220.55 -294.6,-13.62 -666.82,264.02 -666.82,647.38z"/>
   <path class="fil2" d="M627.58 2228.99l2031.43 1.87c98.41,-0.03 136.14,52.34 136.92,-117.2 0.47,-99.78 2.36,-234.06 -4.88,-330.71l-1972.8 -10.95c-85.96,0 -198.23,-42.11 -206.71,82.14 -8.03,117.78 -6.06,282.39 16.04,374.85z"/>
  </g>
  <path class="fil3 str0" d="M8214.95 1434.34l815.2 0.63c-2.05,-21.83 -89.42,-187.52 -108.2,-206.35 -51.15,-51.27 -206,-28.4 -294.69,-28.4 -79.2,0 -251.89,-18.56 -300.04,23.04 -20.36,17.57 -111.78,185.78 -112.27,211.08z"/>
  <path class="fil1" d="M10231 2375.95l1110.62 0.12 2.46 -1427.43c-108.22,22.39 -173.92,179.54 -294.49,323.9 -106.34,127.28 -165.53,203.97 -276.57,354.34l-402.42 534.48c-99.9,131.23 -99.83,81.58 -139.6,214.59z"/>
  <path class="fil3 str0" d="M8446.37 1776.1c32.39,14.63 298.87,9.43 353.26,3.74 14.46,-19.34 67.91,-117.89 32.94,-138.37 -18.02,-10.56 -172.18,-4.48 -205.31,-4.47 -177.65,0.02 -256.24,-28.16 -219.67,67.17 11.04,28.8 19.46,56.89 38.78,71.93z"/>
  <path class="fil3 str0" d="M8973.7 1567.45l149.97 -6.89c23.73,9.55 23.72,31.54 4.59,63.51 -58.91,1.28 -117.82,2.55 -176.74,3.82 -8.81,-6.97 -18.89,-58.55 22.18,-60.44z"/>
  <path class="fil3 str0" d="M8286.46 1562.99l-150.12 -2.1c-23.41,10.3 -22.7,32.27 -2.56,63.62 58.93,-0.6 117.84,-1.21 176.77,-1.81 8.58,-7.25 17.02,-59.13 -24.09,-59.71z"/>
  <circle class="fil3 str0" cx="9072.05" cy="1777.34" r="25.8"/>
  <circle class="fil3 str0" cx="8195.06" cy="1780.47" r="25.8"/>
 </g>
</svg>
