<?xml version="1.0" encoding="UTF-8"?>
<!DOCTYPE svg PUBLIC "-//W3C//DTD SVG 1.1//EN" "http://www.w3.org/Graphics/SVG/1.1/DTD/svg11.dtd">
<!-- Creator: CorelDRAW 2020 (64 Bit) -->
<svg xmlns="http://www.w3.org/2000/svg" xml:space="preserve" width="136.801mm" height="52.3018mm" version="1.1" style="shape-rendering:geometricPrecision; text-rendering:geometricPrecision; image-rendering:optimizeQuality; fill-rule:evenodd; clip-rule:evenodd"
viewBox="0 0 13680.1 5230.18"
 xmlns:xlink="http://www.w3.org/1999/xlink"
 xmlns:xodm="http://www.corel.com/coreldraw/odm/2003">
 <defs>
  <style type="text/css">
   <![CDATA[
    .str0 {stroke:#2C2B2B;stroke-width:20;stroke-miterlimit:22.9256}
    .fil0 {fill:#FEFEFE}
    .fil2 {fill:#ED3237}
    .fil1 {fill:#EAECED}
    .fil3 {fill:#2C2B2B}
   ]]>
  </style>
 </defs>
 <g id="Camada_x0020_1">
  <metadata id="CorelCorpID_0Corel-Layer"/>
  <g id="_2625953038928">
   <path class="fil0" d="M11208.33 3453.23l-4.45 325.54 216.73 2.57 4.4 1425.1 417.12 2.31 0.5 -1430.63 413.17 1.79 27.22 -77.73 90.71 186.61c125.9,-33.78 238.65,-171.76 549.17,-161.56 221.56,7.28 362.51,143.53 341.36,380.81 -269.08,10.77 -607.56,-33.23 -832.68,64.45 -211.9,91.95 -340.61,301.32 -301.47,579.45 58.56,415.95 486.21,555.67 846.48,440.65 215.08,-68.66 201.59,-138.61 290.98,-181.46l2.16 190.3 407.59 9.07c3.91,-286.11 0.21,-574.93 -0.69,-860.16 -0.92,-292.13 28.92,-539.39 -119.39,-743.54 -203.67,-280.36 -672.87,-293.83 -981.01,-188.55 -98.73,33.75 -233.06,116.47 -307.07,133.23l-2.9 -96.29 -418.23 -3.19c-20.13,-135.56 -17.88,-297.27 66.16,-368.66 133.22,-113.16 270.53,4 359.9,-6.51l68.68 -355.45c-151.84,-46.83 -237.19,-95.66 -418.41,-64.95 -575.77,97.57 -483.02,669.14 -498.83,755.94 -12.62,69.18 -29.57,35.51 -217.2,40.86z"/>
   <path class="fil0" d="M10071.19 3385.79c-266.64,65.84 -424.71,172.24 -542.99,358.46 -124.93,196.7 -185.64,469.47 -132.02,760.51 88.09,478.02 505.07,819.33 1089.4,702.37 470.7,-94.23 764.54,-537.08 671.38,-1115.4 -88.27,-547.84 -609.89,-823.43 -1085.77,-705.94z"/>
   <path class="fil0" d="M-1.03 5204.16l1672.39 5.67 -0.91 -402.66 -1241.04 -2.12 -0.74 -597.09 1073.73 0.03 7.56 -402.23 -1075.94 -1.04 -5.48 -589.27 902.7 0c345.38,0 328.17,91.98 303.5,-394.37 -53.05,-15.39 -1527.89,-19.18 -1632.51,-4.14l-3.26 2387.22z"/>
   <polygon class="fil0" points="5084.85,5205.81 6756.25,5209.7 6755.87,4807.71 5517.67,4805.13 5514.7,4207.78 6588.22,4207.91 6594.57,3807.48 5521.4,3804.65 5514.68,3216.16 6712.42,3215.32 6719.63,2815.86 5088.72,2812.28 "/>
   <path class="fil1" d="M9140.34 1117.35c-82.29,-43.4 -24.17,-92.62 -176.42,-94.14 -99.08,-1 -164.33,4.51 -150.7,118.13 90.11,52.95 170.15,7.97 274.77,36.59 -21.68,106.95 -211.16,85.05 -211.14,261 0.03,409.44 -38.36,392.59 116.24,499.14 -0.95,86.06 -5.63,116.32 32.13,171.87l298.62 1.1c47.18,-74.91 25.29,-71.95 36.3,-139.05l5.53 -22.16c13.53,-56 1007.85,-23.56 1135.85,-21.2 15.88,112.16 -16.39,89.99 40.09,175.09l301.17 4.91c40.54,-93.42 33.88,-45.37 33.97,-174.76 142.29,-73.62 115.95,-121.73 116.24,-345.28 0.29,-211.52 16.91,-229.55 -126.2,-324.1 -45.57,-30.11 -72.95,-32.14 -83.68,-86.72 95.19,-23.32 176.7,9.74 267.97,-32.06 47.23,-175.42 -226.61,-114.39 -249.42,-99 -47,31.75 -9.4,47.16 -89.27,71.62 -33.97,-86.14 -93.1,-179.74 -137.63,-269.4 -87.01,-175.26 -168.56,-171.15 -332.44,-171.18l-612.21 0.01c-360.77,0.07 -290.33,139.69 -455.63,399.84l-34.14 39.75z"/>
   <path class="fil0" d="M4159.74 4908.13c-20.94,-40.53 -175.41,-210.31 -216.4,-240.52 -131.57,91.29 -270.06,242.78 -560.6,187.62 -217.44,-41.3 -383.47,-262.58 -371.44,-402.87l1243.77 -2.22c121.22,-1357.74 -1316.83,-1357.42 -1615.71,-533.63 -172.43,475.29 0,973.41 327.34,1178.98 283.41,177.99 676.77,172.75 977.78,4.12 50.91,-28.52 186.19,-126.1 215.26,-191.48z"/>
   <path class="fil2" d="M5224.95 908.35l3.52 902.78c70.86,50.29 45.83,8.96 140.34,34.49 3.89,1.05 8.55,3.23 11.64,4.2 104.99,32.57 -103.98,264.47 213.97,246.86 84.21,-125.83 26.17,-248.58 118.05,-265.16 13.88,-2.51 51.53,-2.49 67.06,-2.4 45.53,0.28 90.91,0.69 136.5,0.73 145.24,0.11 733.16,-23.14 772.67,19.94 55.34,80.81 -35.45,262.93 150.95,249.91 67.34,-4.72 82.8,-36.7 96.17,-101.09 14.25,-68.64 16.27,-101.92 36.92,-168.76 74.14,0 915.47,-10.32 979.54,6.55 37.44,9.85 26.53,21.55 34.6,51.1l36.63 163.64c3.59,5.27 180.05,107.69 209.7,-53.52 5.25,-28.6 6.05,-57.48 9.8,-84.19 25.43,-181.6 137.11,-7.13 150.43,-146.32 2.2,-22.94 -1.48,-83.12 -1.62,-110.47 -0.34,-68.02 0.37,-136.07 0.26,-204.1 -0.39,-249.87 16.11,-560.2 -6.58,-802.67 -5.93,-12.08 -198.17,-190.61 -350.39,-14.74 -74.72,86.31 -47.17,368.25 -47.05,504.51l1.63 273.64c-0.63,55.83 11.71,46.78 -16.2,70.29 -37.65,37.2 -1245.38,16.18 -1390.84,16.21l-913.13 -1.33 -7.83 -768.06c-10.55,-72.86 -98.74,-155.9 -157.84,-167.81 -89.43,-18.01 -176.99,26.41 -223.85,77.2 -57.36,62.2 -55.05,155.06 -55.05,268.57z"/>
   <path class="fil0" d="M6963.58 4667.05c-42.77,66.93 -131.02,240.55 -132.13,309.09 322.75,319.43 1087.78,358.36 1303.8,-38.72 71.54,-131.47 89.12,-346.92 16.83,-495.96 -148.11,-305.36 -583.98,-315.95 -778.7,-445.69 -183.09,-121.99 -50.87,-413.44 432.97,-228.86 69.6,26.54 163.65,85.19 218.4,96.12 38.47,-50.31 135.83,-252.18 141.87,-323.04 -168.62,-74.63 -212.43,-130.67 -440.58,-169.45 -178.53,-30.33 -388,-9.8 -526.14,59.63 -354.4,178.12 -364.14,608.92 -170.77,814.62 239.88,255.13 752.86,210.14 762,460.29 9.48,259.17 -430.99,181.68 -635.74,80.11 -71.45,-35.45 -148.29,-102.99 -191.81,-118.14z"/>
   <path class="fil0" d="M8459.9 3451.03l-239.08 2.64c-36.59,378.89 14.64,328.41 88.34,327.73 48.74,-0.45 98.5,-0.87 147.22,-2.25 52.13,545.13 -188.39,1365.31 412.51,1444.03 231.37,30.31 359.67,-44.64 509.76,-117.17 -5.06,-117.46 -65.08,-232.67 -83.65,-337.94 -182.01,28.78 -419.52,230.62 -423.23,-227.21 -1.91,-234.82 -14.48,-529.89 2.67,-758.67l480.41 -2.62 3.04 -326.1c-119.95,-4.25 -395.19,29.28 -477.59,-13.16 -35.43,-97.02 2.14,-358.53 -12.35,-487.77l-405.11 -1.03 -2.94 499.52z"/>
   <polygon class="fil0" points="1944.74,5204.09 2360.9,5209.15 2361.03,2670.68 1951.07,2667.85 "/>
   <path class="fil2" d="M5527.07 459.39c130.7,78.61 168.05,31.63 214.71,222.09l25.37 79.04c8.42,35.91 6.17,69.75 5.27,107.38 -2.57,109.11 -22.91,129.63 89.18,129.61l802.67 -0.16c139.25,0 106.31,-11.47 106.35,-197.83 0.01,-66.9 21.25,-419.55 -20.99,-480.12 -103.69,-148.66 -72.68,-95.83 -203.11,-205.72 -100.46,-84.63 -270.2,-114.3 -413.31,-112.5 -316.02,3.97 -592.17,303.12 -606.14,458.21z"/>
   <path class="fil2" d="M6881.25 418.58c0,143.92 -13.85,484.75 10.65,561.53 193.47,26.5 616.28,11.2 819.95,11.18 115.43,-0.03 154.62,30.79 154.9,-81.34 0.32,-130.78 12.85,-261.27 96.67,-363.45 43.32,-52.82 77.49,-57.14 147.99,-81.77 -10.58,-104 -47.18,-122.2 -89.55,-178.11 -5.96,-7.85 -13.18,-19.66 -22.15,-32.1l-97.68 -107.31c-87.91,-71.65 -248.06,-136.16 -380.1,-140.21 -283.04,-8.66 -640.68,167.85 -640.68,411.58z"/>
   <path class="fil0" d="M3601.05 1646.7l-959.77 2.84c13.09,54.78 162.72,190.54 214.16,237.36 55.92,50.94 179.32,159.79 203.6,221.7l1319.65 2.89c88.7,-147.79 333.98,-354.61 350.26,-462.17l-1047.94 -0.12c-30.18,-112.46 9.24,-1050.03 -10.48,-1294.91l-67.15 -1.48 -2.33 1293.89z"/>
   <path class="fil3 str0" d="M10161.7 3762.1c-591.62,148.64 -431.29,1237.39 230.73,1076.4 577.6,-140.47 440.83,-1245.1 -230.73,-1076.4z"/>
   <path class="fil0" d="M3769.82 1571.37l1000.06 3.07c26.06,-195.04 -199.87,-585.01 -361.66,-750.02 -102.71,-104.73 -174.65,-172.69 -292.4,-264.37 -53.07,-41.33 -297.81,-201.89 -355.69,-200.17l155.54 400.59c12.91,55.89 16.63,125.03 17.07,188.61 2.76,402.92 -158.71,538.14 -162.92,622.29z"/>
   <path class="fil2" d="M5787.24 1391.29l1951.81 1.19c94.55,-0.02 130.8,33.27 131.55,-74.51 0.45,-63.44 2.27,-148.81 -4.69,-210.26l-1895.47 -6.96c-82.6,0 -190.46,-26.77 -198.61,52.22 -7.71,74.88 -5.82,179.54 15.41,238.32z"/>
   <path class="fil3 str0" d="M9227.03 1161.43l1415.59 1.09c-3.55,-37.91 -155.27,-325.61 -187.89,-358.31 -88.81,-89.04 -357.72,-49.33 -511.72,-49.32 -137.53,0 -437.4,-32.23 -521.02,40 -35.35,30.51 -194.11,322.61 -194.96,366.54z"/>
   <path class="fil3 str0" d="M2999.28 4149.4l876.2 -0.62c-1.97,-267.05 -177.52,-438.19 -435.92,-436.76 -242.12,1.35 -439.12,202.64 -440.28,437.38z"/>
   <path class="fil3 str0" d="M13266.9 4414.02c-89.87,-14.85 -503.77,-9.13 -582.45,11.3 -234.73,60.91 -180.9,305.38 -88.7,388.19 118.91,106.83 353.3,81.46 485.14,8.92 158.32,-87.09 196.71,-195.47 186.01,-408.41z"/>
   <path class="fil0" d="M2807.28 1568.67l716.64 0.06 1.59 -760.26c-69.83,11.92 -112.22,95.62 -190.02,172.51 -68.62,67.79 -106.81,108.64 -178.46,188.72l-259.67 284.67c-64.47,69.9 -64.42,43.45 -90.08,114.3z"/>
   <path class="fil3 str0" d="M9628.89 1754.89c56.25,25.4 518.99,16.37 613.43,6.5 25.11,-33.58 117.93,-204.71 57.2,-240.29 -31.28,-18.33 -298.98,-7.77 -356.51,-7.76 -308.5,0.04 -444.95,-48.89 -381.47,116.65 19.19,50 33.81,98.78 67.35,124.9z"/>
   <path class="fil3 str0" d="M10544.6 1392.57l260.42 -11.95c41.2,16.58 41.19,54.76 7.97,110.28 -102.31,2.21 -204.6,4.41 -306.91,6.63 -15.29,-12.11 -32.81,-101.68 38.52,-104.96z"/>
   <path class="fil3 str0" d="M9351.21 1384.84l-260.67 -3.66c-40.66,17.89 -39.42,56.05 -4.46,110.48 102.33,-1.04 204.64,-2.1 306.97,-3.15 14.9,-12.59 29.55,-102.67 -41.84,-103.67z"/>
   <circle class="fil3 str0" cx="10715.38" cy="1757.04" r="44.8"/>
   <circle class="fil3 str0" cx="9192.5" cy="1762.49" r="44.8"/>
  </g>
 </g>
</svg>
